<svg width="175" height="175" viewBox="0 0 175 175" fill="none" xmlns="http://www.w3.org/2000/svg">
<g filter="url(#filter0_i_44_6)">
<path d="M175 87.5C175 135.825 135.825 175 87.5 175C39.1751 175 0 135.825 0 87.5C0 39.1751 39.1751 0 87.5 0C135.825 0 175 39.1751 175 87.5ZM19.9628 87.5C19.9628 124.8 50.2003 155.037 87.5 155.037C124.8 155.037 155.037 124.8 155.037 87.5C155.037 50.2003 124.8 19.9628 87.5 19.9628C50.2003 19.9628 19.9628 50.2003 19.9628 87.5Z" fill="black"/>
</g>
<g filter="url(#filter1_d_44_6)">
<rect x="122.627" y="27.8845" width="32.9963" height="135.262" rx="16.4981" transform="rotate(43.7023 122.627 27.8845)" fill="#F31212"/>
</g>
<g filter="url(#filter2_d_44_6)">
<rect x="29.689" y="49.3063" width="33" height="135.119" rx="16.5" transform="rotate(-43.7 29.689 49.3063)" fill="#F31212"/>
</g>
<defs>
<filter id="filter0_i_44_6" x="0" y="0" width="175" height="179" filterUnits="userSpaceOnUse" color-interpolation-filters="sRGB">
<feFlood flood-opacity="0" result="BackgroundImageFix"/>
<feBlend mode="normal" in="SourceGraphic" in2="BackgroundImageFix" result="shape"/>
<feColorMatrix in="SourceAlpha" type="matrix" values="0 0 0 0 0 0 0 0 0 0 0 0 0 0 0 0 0 0 127 0" result="hardAlpha"/>
<feOffset dy="4"/>
<feGaussianBlur stdDeviation="2"/>
<feComposite in2="hardAlpha" operator="arithmetic" k2="-1" k3="1"/>
<feColorMatrix type="matrix" values="0 0 0 0 0 0 0 0 0 0 0 0 0 0 0 0 0 0 0.25 0"/>
<feBlend mode="normal" in2="shape" result="effect1_innerShadow_44_6"/>
</filter>
<filter id="filter1_d_44_6" x="32.001" y="34.7122" width="111.653" height="114.928" filterUnits="userSpaceOnUse" color-interpolation-filters="sRGB">
<feFlood flood-opacity="0" result="BackgroundImageFix"/>
<feColorMatrix in="SourceAlpha" type="matrix" values="0 0 0 0 0 0 0 0 0 0 0 0 0 0 0 0 0 0 127 0" result="hardAlpha"/>
<feOffset dy="4"/>
<feGaussianBlur stdDeviation="2"/>
<feComposite in2="hardAlpha" operator="out"/>
<feColorMatrix type="matrix" values="0 0 0 0 0 0 0 0 0 0 0 0 0 0 0 0 0 0 0.25 0"/>
<feBlend mode="normal" in2="BackgroundImageFix" result="effect1_dropShadow_44_6"/>
<feBlend mode="normal" in="SourceGraphic" in2="effect1_dropShadow_44_6" result="shape"/>
</filter>
<filter id="filter2_d_44_6" x="32.5176" y="33.3357" width="111.552" height="114.829" filterUnits="userSpaceOnUse" color-interpolation-filters="sRGB">
<feFlood flood-opacity="0" result="BackgroundImageFix"/>
<feColorMatrix in="SourceAlpha" type="matrix" values="0 0 0 0 0 0 0 0 0 0 0 0 0 0 0 0 0 0 127 0" result="hardAlpha"/>
<feOffset dy="4"/>
<feGaussianBlur stdDeviation="2"/>
<feComposite in2="hardAlpha" operator="out"/>
<feColorMatrix type="matrix" values="0 0 0 0 0 0 0 0 0 0 0 0 0 0 0 0 0 0 0.25 0"/>
<feBlend mode="normal" in2="BackgroundImageFix" result="effect1_dropShadow_44_6"/>
<feBlend mode="normal" in="SourceGraphic" in2="effect1_dropShadow_44_6" result="shape"/>
</filter>
</defs>
</svg>
