<svg width="1400" height="1400" viewBox="0 0 1400 1400" fill="none" xmlns="http://www.w3.org/2000/svg">
<g filter="url(#filter0_d_44_6)">
<rect x="1008.19" y="213.185" width="263.97" height="1127.01" rx="50" transform="rotate(45 1008.19 213.185)" fill="#F31212"/>
</g>
<g filter="url(#filter1_d_44_6)">
<rect x="217.286" y="391.614" width="264" height="1124" rx="50" transform="rotate(-45 217.286 391.614)" fill="#F31212"/>
</g>
<g filter="url(#filter2_i_44_6)">
<path d="M1400 700C1400 1086.6 1086.6 1400 700 1400C313.401 1400 0 1086.6 0 700C0 313.401 313.401 0 700 0C1086.6 0 1400 313.401 1400 700ZM159.703 700C159.703 998.398 401.602 1240.3 700 1240.3C998.398 1240.3 1240.3 998.398 1240.3 700C1240.3 401.602 998.398 159.703 700 159.703C401.602 159.703 159.703 401.602 159.703 700Z" fill="black" fill-opacity="0.8"/>
</g>
<defs>
<filter id="filter0_d_44_6" x="227.983" y="233.896" width="950.15" height="950.15" filterUnits="userSpaceOnUse" color-interpolation-filters="sRGB">
<feFlood flood-opacity="0" result="BackgroundImageFix"/>
<feColorMatrix in="SourceAlpha" type="matrix" values="0 0 0 0 0 0 0 0 0 0 0 0 0 0 0 0 0 0 127 0" result="hardAlpha"/>
<feOffset dy="4"/>
<feGaussianBlur stdDeviation="2"/>
<feComposite in2="hardAlpha" operator="out"/>
<feColorMatrix type="matrix" values="0 0 0 0 0 0 0 0 0 0 0 0 0 0 0 0 0 0 0.25 0"/>
<feBlend mode="normal" in2="BackgroundImageFix" result="effect1_dropShadow_44_6"/>
<feBlend mode="normal" in="SourceGraphic" in2="effect1_dropShadow_44_6" result="shape"/>
</filter>
<filter id="filter1_d_44_6" x="233.997" y="225.649" width="948.046" height="948.046" filterUnits="userSpaceOnUse" color-interpolation-filters="sRGB">
<feFlood flood-opacity="0" result="BackgroundImageFix"/>
<feColorMatrix in="SourceAlpha" type="matrix" values="0 0 0 0 0 0 0 0 0 0 0 0 0 0 0 0 0 0 127 0" result="hardAlpha"/>
<feOffset dy="4"/>
<feGaussianBlur stdDeviation="2"/>
<feComposite in2="hardAlpha" operator="out"/>
<feColorMatrix type="matrix" values="0 0 0 0 0 0 0 0 0 0 0 0 0 0 0 0 0 0 0.25 0"/>
<feBlend mode="normal" in2="BackgroundImageFix" result="effect1_dropShadow_44_6"/>
<feBlend mode="normal" in="SourceGraphic" in2="effect1_dropShadow_44_6" result="shape"/>
</filter>
<filter id="filter2_i_44_6" x="0" y="0" width="1400" height="1404" filterUnits="userSpaceOnUse" color-interpolation-filters="sRGB">
<feFlood flood-opacity="0" result="BackgroundImageFix"/>
<feBlend mode="normal" in="SourceGraphic" in2="BackgroundImageFix" result="shape"/>
<feColorMatrix in="SourceAlpha" type="matrix" values="0 0 0 0 0 0 0 0 0 0 0 0 0 0 0 0 0 0 127 0" result="hardAlpha"/>
<feOffset dy="4"/>
<feGaussianBlur stdDeviation="2"/>
<feComposite in2="hardAlpha" operator="arithmetic" k2="-1" k3="1"/>
<feColorMatrix type="matrix" values="0 0 0 0 0 0 0 0 0 0 0 0 0 0 0 0 0 0 0.25 0"/>
<feBlend mode="normal" in2="shape" result="effect1_innerShadow_44_6"/>
</filter>
</defs>
</svg>
